<?xml version="1.0" standalone="no"?>
<!DOCTYPE svg PUBLIC "-//W3C//DTD SVG 20010904//EN"
 "http://www.w3.org/TR/2001/REC-SVG-20010904/DTD/svg10.dtd">
<svg version="1.0" xmlns="http://www.w3.org/2000/svg"
 width="1024.000000pt" height="116.000000pt" viewBox="0 0 1024.000000 116.000000"
 preserveAspectRatio="xMidYMid meet">

<g transform="translate(0.000000,116.000000) scale(0.100000,-0.100000)"
fill="#000000" stroke="none">
<path d="M191 966 c-8 -9 -10 -122 -9 -397 l3 -384 395 0 395 0 3 384 c1 275
-1 388 -9 397 -17 21 -761 21 -778 0z m192 -11 c9 -2 17 0 17 5 0 4 10 6 23 5
12 -1 27 -3 34 -4 7 0 17 -19 23 -41 9 -33 8 -43 -4 -55 -19 -19 -36 -19 -36
0 0 8 -7 15 -15 15 -8 0 -15 -7 -15 -15 0 -8 -9 -15 -19 -15 -17 0 -19 4 -10
32 13 45 11 58 -6 58 -11 0 -15 -12 -15 -45 0 -38 -3 -45 -20 -45 -17 0 -20 7
-20 40 0 44 -17 60 -57 52 l-25 -5 29 -23 c23 -19 26 -26 17 -41 -15 -24 -94
-32 -94 -8 0 11 6 14 25 9 31 -8 33 8 3 21 -28 12 -34 38 -13 58 12 13 30 15
88 11 39 -3 80 -7 90 -9z m201 5 c28 -10 35 -41 14 -58 -7 -5 -32 -13 -55 -17
l-43 -7 0 46 c0 44 1 46 29 46 16 0 41 -4 55 -10z m140 -10 c5 -6 5 -15 -2
-23 -7 -8 -9 -17 -5 -20 12 -13 22 -7 25 15 2 12 15 29 31 38 24 13 30 13 55
0 30 -17 42 -70 21 -96 -16 -19 -83 -18 -100 2 -11 14 -13 14 -21 0 -9 -16
-39 -22 -51 -9 -4 3 -2 12 4 19 7 8 7 14 -1 19 -5 3 -10 -1 -10 -9 0 -17 -9
-20 -34 -10 -11 4 -16 19 -16 49 l0 43 48 -5 c26 -2 51 -9 56 -13z m186 -7 c1
-17 1 -17 14 0 13 17 36 24 36 10 -1 -5 -7 -19 -15 -33 -8 -14 -14 -35 -15
-47 0 -18 -6 -23 -25 -23 -22 0 -25 4 -25 33 0 18 -7 43 -16 55 -15 21 -14 22
15 22 23 0 31 -5 31 -17z m-163 -325 c-3 -7 -5 -2 -5 12 0 14 2 19 5 13 2 -7
2 -19 0 -25z m103 -28 c6 -20 6 -30 1 -24 -11 10 -27 72 -17 63 4 -4 11 -21
16 -39z m35 -90 c3 -5 1 -10 -4 -10 -6 0 -11 5 -11 10 0 6 2 10 4 10 3 0 8 -4
11 -10z"/>
<path d="M420 920 c0 -11 4 -20 9 -20 5 0 7 9 4 20 -3 11 -7 20 -9 20 -2 0 -4
-9 -4 -20z"/>
<path d="M550 930 c0 -19 3 -21 12 -12 9 9 9 15 0 24 -9 9 -12 7 -12 -12z"/>
<path d="M670 934 c0 -8 5 -12 10 -9 6 4 8 11 5 16 -9 14 -15 11 -15 -7z"/>
<path d="M787 926 c-7 -18 3 -56 14 -56 5 0 9 16 9 35 0 35 -13 47 -23 21z"/>
<path d="M782 123 l1 -48 4 43 c3 33 8 42 22 42 24 0 38 -18 44 -55 4 -27 4
-27 6 7 1 40 -17 58 -58 58 -19 0 -21 -6 -19 -47z"/>
<path d="M1061 123 c1 -27 3 -40 6 -31 2 10 17 18 36 21 l32 4 -32 1 c-25 2
-33 7 -33 21 0 15 8 21 33 24 31 4 31 4 -5 5 l-38 2 1 -47z"/>
<path d="M1358 126 c15 -24 29 -39 31 -32 2 6 12 26 23 44 11 17 16 32 11 32
-5 0 -16 -14 -24 -32 l-16 -32 -18 32 c-11 18 -23 32 -27 32 -4 0 5 -20 20
-44z"/>
<path d="M892 110 c0 -19 2 -27 5 -17 2 9 2 25 0 35 -3 9 -5 1 -5 -18z"/>
<path d="M932 128 c-7 -7 -12 -19 -12 -28 0 -12 8 -15 35 -12 19 2 35 10 35
16 0 15 -20 36 -35 36 -6 0 -16 -5 -23 -12z m46 -15 c2 -8 -6 -13 -22 -13 -25
0 -33 10 -19 24 10 10 36 3 41 -11z"/>
<path d="M1162 128 c-7 -7 -12 -21 -11 -32 1 -18 2 -17 8 4 10 35 37 37 49 3
8 -22 11 -24 11 -7 2 37 -33 56 -57 32z"/>
<path d="M1241 105 c0 -16 3 -23 6 -15 3 8 12 22 19 30 11 13 10 16 -6 16 -16
0 -20 -7 -19 -31z"/>
<path d="M1450 121 c-5 -11 -10 -26 -10 -33 0 -7 6 -2 13 12 7 14 19 25 27 25
8 0 17 -11 21 -25 l7 -25 1 26 c1 16 -5 29 -15 33 -25 10 -33 7 -44 -13z"/>
<path d="M1532 110 c0 -19 2 -27 5 -17 2 9 2 25 0 35 -3 9 -5 1 -5 -18z"/>
<path d="M1592 110 c0 -19 2 -27 5 -17 2 9 2 25 0 35 -3 9 -5 1 -5 -18z"/>
</g>
</svg>
